<svg width="1000" height="1000" viewBox="0 0 1000 1000" fill="none" xmlns="http://www.w3.org/2000/svg">
<g clip-path="url(#clip0_224_3)">
<rect width="1000" height="1000" fill="black"/>
<path d="M1000 0H0V1000H1000V0Z" fill="black"/>
<path d="M481.171 808C709.17 808 894 779.122 894 743.5C894 707.878 709.17 679 481.171 679C253.172 679 68.342 707.878 68.342 743.5C68.342 779.122 253.172 808 481.171 808Z" fill="#1E1E1E"/>
<path d="M630.084 297H523.916C495.244 297 472 319.953 472 348.268V709.855C472.012 714.871 473.127 719.822 475.267 724.359C477.406 728.895 480.517 732.906 484.379 736.106C488.241 739.306 492.76 741.618 497.615 742.877C502.47 744.136 507.542 744.312 512.473 743.392C513.741 743.171 514.981 742.815 516.173 742.33C536.599 733.504 552.952 721.741 577.005 721.741C601.058 721.741 617.412 733.504 637.838 742.33C639.028 742.814 640.266 743.17 641.532 743.392C646.462 744.311 651.534 744.135 656.389 742.875C661.243 741.616 665.761 739.304 669.623 736.104C673.484 732.904 676.595 728.894 678.734 724.357C680.873 719.821 681.988 714.87 682 709.855V348.268C682 319.953 658.756 297 630.084 297Z" fill="#1E1E1E"/>
<path d="M630.083 297H602.083C630.756 297 654 319.953 654 348.268V709.855C653.981 716.342 652.121 722.691 648.636 728.163C645.151 733.635 640.184 738.004 634.313 740.764C635.475 741.294 636.648 741.816 637.833 742.33C639.023 742.814 640.261 743.17 641.527 743.392C646.458 744.312 651.53 744.136 656.385 742.877C661.24 741.618 665.759 739.306 669.621 736.106C673.483 732.906 676.594 728.895 678.733 724.359C680.873 719.822 681.988 714.871 682 709.855V348.268C682 319.953 658.756 297 630.083 297Z" fill="#121212"/>
<path d="M549 721.741C526.344 721.741 510.518 732.176 491.687 740.764C498.157 743.837 505.442 744.758 512.473 743.392C513.741 743.17 514.981 742.814 516.173 742.33C532.386 735.324 546.037 726.474 563.005 723.12C558.393 722.202 553.702 721.74 549 721.741Z" fill="#D9CEDB"/>
<path d="M630.084 297H523.916C495.244 297 472 319.953 472 348.268V709.855C472.012 714.871 473.127 719.822 475.267 724.359C477.406 728.895 480.517 732.906 484.379 736.106C488.241 739.306 492.76 741.618 497.615 742.877C502.47 744.136 507.542 744.312 512.473 743.392C513.741 743.171 514.981 742.815 516.173 742.33C536.599 733.504 552.952 721.741 577.005 721.741C601.058 721.741 617.412 733.504 637.838 742.33C639.028 742.814 640.266 743.17 641.532 743.392C646.462 744.311 651.534 744.135 656.389 742.875C661.243 741.616 665.761 739.304 669.623 736.104C673.484 732.904 676.595 728.894 678.734 724.357C680.873 719.821 681.988 714.87 682 709.855V348.268C682 319.953 658.756 297 630.084 297Z" stroke="#383838" stroke-width="6" stroke-linecap="round" stroke-linejoin="round"/>
<path d="M619.224 283H535.224V297H619.224V283Z" fill="#1E1E1E"/>
<path d="M619.224 283H535.224V297H619.224V283Z" stroke="#383838" stroke-width="6" stroke-linecap="round" stroke-linejoin="round"/>
<path d="M620.349 283.333C591.622 284.921 562.828 284.921 534.101 283.333C532.571 283.244 531.132 282.573 530.081 281.458C529.03 280.342 528.445 278.866 528.448 277.333C528.448 265.756 528.448 254.179 528.448 242.602C528.448 231.561 537.274 220.592 548.055 218.202C567.253 213.907 587.163 213.921 606.355 218.241C617.155 220.625 626.003 231.585 626.003 242.641C626.003 254.203 626.003 265.764 626.003 277.325C626.008 278.86 625.424 280.337 624.372 281.455C623.321 282.572 621.881 283.245 620.349 283.333Z" fill="#1E1E1E"/>
<path d="M626 242.654C626 231.594 617.153 220.634 606.353 218.254C593.797 215.444 580.901 214.458 568.063 215.325C574.89 215.795 581.672 216.774 588.353 218.254C599.153 220.638 608 231.598 608 242.654C608 254.216 608 265.777 608 277.338C608.003 278.871 607.419 280.346 606.368 281.462C605.317 282.578 603.879 283.249 602.349 283.338C590.981 283.966 579.606 284.342 568.225 284.467C585.604 284.667 602.978 284.291 620.349 283.338C621.879 283.249 623.317 282.578 624.368 281.462C625.419 280.346 626.003 278.871 626 277.338C626 265.779 626 254.218 626 242.654Z" fill="#121212"/>
<path d="M620.349 283.333C591.622 284.921 562.828 284.921 534.101 283.333C532.571 283.244 531.132 282.573 530.081 281.458C529.03 280.342 528.445 278.866 528.448 277.333C528.448 265.756 528.448 254.179 528.448 242.602C528.448 231.561 537.274 220.592 548.055 218.202C567.253 213.907 587.163 213.921 606.355 218.241C617.155 220.625 626.003 231.585 626.003 242.641C626.003 254.203 626.003 265.764 626.003 277.325C626.008 278.86 625.424 280.337 624.372 281.455C623.321 282.572 621.881 283.245 620.349 283.333Z" stroke="#383838" stroke-width="6" stroke-linecap="round" stroke-linejoin="round"/>
<path d="M472 393V709.855C472.012 714.871 473.127 719.822 475.267 724.359C477.406 728.895 480.517 732.906 484.379 736.106C488.241 739.306 492.76 741.618 497.615 742.877C502.47 744.136 507.542 744.312 512.473 743.392C513.741 743.171 514.981 742.815 516.173 742.33C536.599 733.504 552.952 721.741 577.005 721.741C601.058 721.741 617.412 733.504 637.838 742.33C639.028 742.814 640.266 743.17 641.532 743.392C646.462 744.311 651.534 744.135 656.389 742.875C661.243 741.616 665.761 739.304 669.623 736.104C673.484 732.904 676.595 728.894 678.734 724.357C680.873 719.821 681.988 714.87 682 709.855V393H472Z" fill="#121212"/>
<path d="M653 393V695.855C652.988 700.871 651.873 705.822 649.733 710.359C647.594 714.895 644.483 718.906 640.621 722.106C636.759 725.306 632.24 727.618 627.385 728.877C622.53 730.136 617.458 730.312 612.527 729.392C611.261 729.17 610.023 728.814 608.833 728.33C588.407 719.5 572.054 707.741 548 707.741C523.946 707.741 507.594 719.5 487.168 728.33C485.978 728.814 484.739 729.17 483.473 729.392C481.866 729.697 480.238 729.886 478.604 729.958C482.393 735.18 487.59 739.216 493.587 741.595C499.584 743.974 506.135 744.597 512.473 743.392C513.741 743.171 514.981 742.815 516.173 742.33C536.599 733.504 552.952 721.741 577.005 721.741C601.058 721.741 617.412 733.504 637.838 742.33C639.028 742.814 640.266 743.17 641.532 743.392C646.462 744.311 651.534 744.135 656.389 742.875C661.243 741.616 665.761 739.304 669.623 736.104C673.484 732.904 676.595 728.894 678.734 724.357C680.873 719.821 681.988 714.87 682 709.855V393H653Z" fill="#121212"/>
<path d="M472 393V709.855C472.012 714.871 473.127 719.822 475.267 724.359C477.406 728.895 480.517 732.906 484.379 736.106C488.241 739.306 492.76 741.618 497.615 742.877C502.47 744.136 507.542 744.312 512.473 743.392C513.741 743.171 514.981 742.815 516.173 742.33C536.599 733.504 552.952 721.741 577.005 721.741C601.058 721.741 617.412 733.504 637.838 742.33C639.028 742.814 640.266 743.17 641.532 743.392C646.462 744.311 651.534 744.135 656.389 742.875C661.243 741.616 665.761 739.304 669.623 736.104C673.484 732.904 676.595 728.894 678.734 724.357C680.873 719.821 681.988 714.87 682 709.855V393H472Z" fill="#121212"/>
<path d="M472 393V709.855C472.012 714.871 473.127 719.822 475.267 724.359C477.406 728.895 480.517 732.906 484.379 736.106C488.241 739.306 492.76 741.618 497.615 742.877C502.47 744.136 507.542 744.312 512.473 743.392C513.741 743.171 514.981 742.815 516.173 742.33C536.599 733.504 552.952 721.741 577.005 721.741C601.058 721.741 617.412 733.504 637.838 742.33C639.028 742.814 640.266 743.17 641.532 743.392C646.462 744.311 651.534 744.135 656.389 742.875C661.243 741.616 665.761 739.304 669.623 736.104C673.484 732.904 676.595 728.894 678.734 724.357C680.873 719.821 681.988 714.87 682 709.855V393H472Z" stroke="#383838" stroke-width="6" stroke-linecap="round" stroke-linejoin="round"/>
<path d="M549 258V283" stroke="#383838" stroke-width="6" stroke-linecap="round" stroke-linejoin="round"/>
<path d="M568 258V283" stroke="#383838" stroke-width="6" stroke-linecap="round" stroke-linejoin="round"/>
<path d="M587 258V283" stroke="#383838" stroke-width="6" stroke-linecap="round" stroke-linejoin="round"/>
<path d="M606 258V283" stroke="#383838" stroke-width="6" stroke-linecap="round" stroke-linejoin="round"/>
<path d="M528 493C534.627 493 540 487.627 540 481C540 474.373 534.627 469 528 469C521.373 469 516 474.373 516 481C516 487.627 521.373 493 528 493Z" fill="#1E1E1E"/>
<path d="M600 541C604.418 541 608 537.418 608 533C608 528.582 604.418 525 600 525C595.582 525 592 528.582 592 533C592 537.418 595.582 541 600 541Z" fill="#1E1E1E"/>
<path d="M552 601C555.314 601 558 598.314 558 595C558 591.686 555.314 589 552 589C548.686 589 546 591.686 546 595C546 598.314 548.686 601 552 601Z" fill="#1E1E1E"/>
<path d="M578 465C581.314 465 584 462.314 584 459C584 455.686 581.314 453 578 453C574.686 453 572 455.686 572 459C572 462.314 574.686 465 578 465Z" fill="#1E1E1E"/>
<path d="M652 420V566" stroke="#121212" stroke-width="6" stroke-linecap="round" stroke-linejoin="round"/>
<path d="M179 447.816C170.546 448.267 162.174 449.7 154.051 452.086C153.978 454.951 153.982 457.833 154.135 460.744C155 477.175 159.573 493.197 167.513 507.608C175.453 522.019 186.554 534.445 199.981 543.954C213.408 553.464 228.815 559.809 245.045 562.515C261.274 565.22 277.906 564.216 293.692 559.577C293.765 556.712 293.762 553.83 293.608 550.919C292.082 522.049 279.15 494.967 257.657 475.632C236.164 456.296 207.87 446.291 179 447.816Z" fill="#1E1E1E"/>
<path d="M179 447.816C170.546 448.267 162.174 449.7 154.051 452.086C153.978 454.951 153.982 457.833 154.135 460.744C155 477.175 159.573 493.197 167.513 507.608C175.453 522.019 186.554 534.445 199.981 543.954C213.408 553.464 228.815 559.809 245.045 562.515C261.274 565.22 277.906 564.216 293.692 559.577C293.765 556.712 293.762 553.83 293.608 550.919C292.082 522.049 279.15 494.967 257.657 475.632C236.164 456.296 207.87 446.291 179 447.816Z" stroke="#383838" stroke-width="6" stroke-linecap="round" stroke-linejoin="round"/>
<path d="M373.368 425.722C371.733 418.506 369.264 411.505 366.012 404.859C363.533 405.219 361.05 405.647 358.566 406.208C344.539 409.375 331.411 415.677 320.167 424.641C308.923 433.606 299.855 445 293.643 457.969C287.43 470.938 284.235 485.146 284.297 499.526C284.359 513.906 287.676 528.085 294 541C296.479 540.641 298.962 540.213 301.446 539.651C313.649 536.893 325.19 531.758 335.409 524.54C345.628 517.322 354.325 508.162 361.003 497.582C367.682 487.003 372.211 475.212 374.333 462.882C376.454 450.552 376.127 437.925 373.368 425.722Z" fill="#1E1E1E"/>
<path d="M373.368 425.721C372.506 421.917 371.41 418.171 370.085 414.503C371.069 436.823 364.179 458.78 350.619 476.537C337.059 494.294 317.692 506.722 295.9 511.651C293.416 512.213 290.933 512.641 288.455 513C286.923 509.862 285.564 506.643 284.382 503.358C284.977 516.431 288.251 529.243 294 541C296.479 540.641 298.961 540.213 301.446 539.651C313.649 536.893 325.19 531.758 335.409 524.54C345.628 517.321 354.325 508.161 361.003 497.582C367.682 487.002 372.211 475.211 374.333 462.881C376.454 450.551 376.127 437.924 373.368 425.721Z" fill="#1E1E1E"/>
<path d="M373.368 425.722C371.733 418.506 369.264 411.505 366.012 404.859C363.533 405.219 361.05 405.647 358.566 406.208C344.539 409.375 331.411 415.677 320.167 424.641C308.923 433.606 299.855 445 293.643 457.969C287.43 470.938 284.235 485.146 284.297 499.526C284.359 513.906 287.676 528.085 294 541C296.479 540.641 298.962 540.213 301.446 539.651C313.649 536.893 325.19 531.758 335.409 524.54C345.628 517.322 354.325 508.162 361.003 497.582C367.682 487.003 372.211 475.212 374.333 462.882C376.454 450.552 376.127 437.925 373.368 425.722Z" stroke="#383838" stroke-width="6" stroke-linecap="round" stroke-linejoin="round"/>
<path d="M337.733 457C337.733 457 315.275 486 294 541" stroke="#383838" stroke-width="6" stroke-linecap="round" stroke-linejoin="round"/>
<path d="M200.733 490C200.733 490 264.641 551.154 293.687 559.577" stroke="#383838" stroke-width="6" stroke-linecap="round" stroke-linejoin="round"/>
<path d="M403.262 634.5C403.247 649.406 400.27 664.16 394.504 677.905C388.738 691.651 380.298 704.113 369.675 714.569C359.051 725.024 346.456 733.265 332.62 738.811C318.785 744.357 303.985 747.098 289.081 746.875C274.177 746.652 259.466 743.47 245.802 737.513C232.138 731.556 219.795 722.943 209.488 712.175C199.182 701.406 191.118 688.697 185.765 674.786C180.413 660.874 177.878 646.038 178.309 631.138C179.954 572.891 224.232 525.038 283.483 530.119C288.267 530.541 293.074 530.649 297.872 530.44C357.422 527.691 403.262 574.726 403.262 634.5Z" fill="#121212"/>
<path d="M375.134 561.34C379.987 574.661 382.45 588.735 382.41 602.912C382.366 623.043 377.366 642.853 367.851 660.594C358.336 678.334 344.599 693.458 327.853 704.631C311.107 715.803 291.868 722.681 271.834 724.655C251.8 726.629 231.589 723.64 212.984 715.951C228.94 731.138 248.999 741.313 270.678 745.216C292.357 749.119 314.705 746.579 334.956 737.91C355.206 729.242 372.47 714.825 384.611 696.445C396.752 678.065 403.236 656.528 403.262 634.5C403.262 605.813 392.7 580.064 375.134 561.34Z" fill="#1E1E1E"/>
<path d="M352 544C312 555 285.5 595.118 279 639C275 666 292 731 340.561 735.4C359.386 726.107 375.234 711.732 386.315 693.901C397.395 676.069 403.265 655.494 403.261 634.5C403.262 592.526 386.082 560.584 352 544Z" fill="#1E1E1E"/>
<path d="M403.262 634.5C403.247 649.406 400.27 664.16 394.504 677.905C388.738 691.651 380.298 704.113 369.675 714.569C359.051 725.024 346.456 733.265 332.62 738.811C318.785 744.357 303.985 747.098 289.081 746.875C274.177 746.652 259.466 743.47 245.802 737.513C232.138 731.556 219.795 722.943 209.488 712.175C199.182 701.406 191.118 688.697 185.765 674.786C180.413 660.874 177.878 646.038 178.309 631.138C179.954 572.891 224.232 525.038 283.483 530.119C288.267 530.541 293.074 530.649 297.872 530.44C357.422 527.691 403.262 574.726 403.262 634.5Z" stroke="#383838" stroke-width="6" stroke-linecap="round" stroke-linejoin="round"/>
<path d="M213 596C212.143 595.999 211.301 595.779 210.554 595.359C209.807 594.939 209.18 594.334 208.734 593.602C208.288 592.871 208.038 592.037 208.007 591.18C207.976 590.324 208.166 589.474 208.558 588.712C227.566 551.751 264.873 547.205 266.452 547.029C267.77 546.881 269.093 547.263 270.129 548.09C271.166 548.917 271.831 550.122 271.979 551.44C272.127 552.758 271.746 554.081 270.918 555.117C270.091 556.154 268.886 556.819 267.568 556.967C266.203 557.126 233.943 561.216 217.45 593.286C217.03 594.104 216.392 594.79 215.607 595.269C214.822 595.748 213.92 596.001 213 596Z" fill="#1E1E1E"/>
<path d="M216 631C218.209 631 220 629.209 220 627C220 624.791 218.209 623 216 623C213.791 623 212 624.791 212 627C212 629.209 213.791 631 216 631Z" fill="#1E1E1E"/>
<path d="M246 705C248.209 705 250 703.209 250 701C250 698.791 248.209 697 246 697C243.791 697 242 698.791 242 701C242 703.209 243.791 705 246 705Z" fill="#1E1E1E"/>
<path d="M218 678C221.314 678 224 675.314 224 672C224 668.686 221.314 666 218 666C214.686 666 212 668.686 212 672C212 675.314 214.686 678 218 678Z" fill="#1E1E1E"/>
<path d="M262.5 651C264.433 651 266 649.433 266 647.5C266 645.567 264.433 644 262.5 644C260.567 644 259 645.567 259 647.5C259 649.433 260.567 651 262.5 651Z" fill="#1E1E1E"/>
<path d="M403.969 747C463.486 747 511.733 698.752 511.733 639.236C511.733 579.72 463.486 531.472 403.969 531.472C344.453 531.472 296.205 579.72 296.205 639.236C296.205 698.752 344.453 747 403.969 747Z" fill="#121212"/>
<path d="M461.7 548.227C479.416 567.462 489.533 592.482 490.167 618.624C490.801 644.767 481.908 670.248 465.145 690.319C448.382 710.389 424.893 723.68 399.056 727.714C373.219 731.748 346.796 726.25 324.713 712.245C335.105 723.523 347.784 732.453 361.903 738.439C376.022 744.424 391.256 747.327 406.588 746.954C421.919 746.581 436.993 742.94 450.805 736.274C464.616 729.608 476.845 720.072 486.676 708.301C496.506 696.531 503.711 682.798 507.81 668.02C511.908 653.242 512.805 637.76 510.441 622.608C508.077 607.455 502.506 592.982 494.1 580.155C485.695 567.328 474.649 556.443 461.7 548.227Z" fill="#121212"/>
<path d="M403.969 735.472C457.119 735.472 500.205 692.386 500.205 639.236C500.205 586.086 457.119 543 403.969 543C350.819 543 307.733 586.086 307.733 639.236C307.733 692.386 350.819 735.472 403.969 735.472Z" fill="#383838"/>
<path d="M500.145 636C500.136 635.723 500.126 635.446 500.113 635.169C500.073 634.191 500.021 633.216 499.951 632.246C499.943 632.146 499.939 632.046 499.932 631.946C499.852 630.88 499.75 629.821 499.632 628.765C499.605 628.517 499.576 628.27 499.547 628.022C499.437 627.081 499.315 626.144 499.18 625.211C499.162 625.082 499.145 624.953 499.126 624.825C498.967 623.765 498.79 622.711 498.595 621.663C498.559 621.469 498.52 621.275 498.483 621.081C498.303 620.138 498.109 619.2 497.902 618.265C497.874 618.14 497.849 618.014 497.82 617.89C497.58 616.828 497.322 615.773 497.046 614.726C497.016 614.61 496.983 614.494 496.952 614.379C496.691 613.402 496.415 612.431 496.126 611.467C496.095 611.367 496.065 611.26 496.034 611.157C495.709 610.09 495.367 609.032 495.007 607.982L494.993 607.942C494.637 606.907 494.263 605.881 493.872 604.862L493.789 604.643C492.983 602.555 492.108 600.503 491.163 598.486C491.144 598.444 491.125 598.402 491.105 598.361C490.148 596.324 489.123 594.327 488.028 592.369L487.999 592.318C486.895 590.345 485.725 588.415 484.488 586.53C490.43 604.054 491.763 622.813 488.359 641.002C484.954 659.19 476.926 676.197 465.048 690.385C453.169 704.574 437.84 715.467 420.533 722.017C403.227 728.567 384.526 730.554 366.23 727.786C370.602 729.652 375.107 731.19 379.708 732.386L379.732 732.393C380.486 732.588 381.243 732.774 382.004 732.952L382.07 732.968C382.803 733.139 383.541 733.301 384.283 733.454L384.432 733.487C385.144 733.634 385.859 733.77 386.577 733.901L386.813 733.947C387.513 734.073 388.219 734.189 388.925 734.3L389.212 734.347C389.874 734.447 390.539 734.54 391.205 734.629C391.349 734.648 391.491 734.67 391.635 734.689C392.276 734.771 392.92 734.842 393.564 734.911C393.733 734.929 393.901 734.952 394.064 734.969C394.678 735.032 395.293 735.083 395.91 735.134C396.11 735.151 396.315 735.173 396.518 735.188C397.1 735.233 397.686 735.266 398.271 735.3C398.51 735.314 398.748 735.334 398.987 735.346C399.587 735.377 400.197 735.396 400.803 735.415C401.025 735.423 401.245 735.435 401.468 735.441C402.297 735.462 403.13 735.472 403.968 735.473C422.493 735.488 440.628 730.151 456.192 720.104C471.756 710.057 484.086 695.728 491.7 678.84C492.342 677.419 492.951 675.98 493.526 674.523C494.388 672.338 495.171 670.114 495.874 667.853C497.056 664.055 497.999 660.187 498.698 656.271C498.98 654.691 499.223 653.098 499.428 651.493C499.944 647.428 500.202 643.334 500.201 639.236C500.205 638.152 500.181 637.074 500.145 636Z" fill="#383838"/>
<path d="M403.969 747C463.486 747 511.733 698.752 511.733 639.236C511.733 579.72 463.486 531.472 403.969 531.472C344.453 531.472 296.205 579.72 296.205 639.236C296.205 698.752 344.453 747 403.969 747Z" stroke="#383838" stroke-width="6" stroke-linecap="round" stroke-linejoin="round"/>
<path d="M427.659 625.96C426.753 624.348 425.683 622.834 424.466 621.441C422.655 619.411 421.525 616.866 421.235 614.162C420.944 611.457 421.507 608.73 422.845 606.362L439.409 577.547C440.349 575.91 441.637 574.5 443.182 573.415C444.726 572.33 446.49 571.597 448.349 571.269C450.208 570.94 452.116 571.023 453.939 571.512C455.762 572.001 457.456 572.885 458.9 574.1C470.143 583.548 478.742 595.751 483.857 609.517C484.513 611.288 484.773 613.181 484.617 615.062C484.462 616.944 483.895 618.769 482.957 620.408C482.019 622.047 480.732 623.459 479.189 624.547C477.645 625.634 475.881 626.369 474.022 626.7L441.28 632.543C438.607 633 435.858 632.611 433.416 631.431C430.975 630.251 428.962 628.338 427.659 625.96Z" fill="#FFCE43"/>
<path d="M380.279 652.512C381.186 654.123 382.256 655.637 383.472 657.03C385.283 659.06 386.413 661.605 386.704 664.31C386.995 667.014 386.432 669.742 385.094 672.11L368.529 700.925C367.589 702.562 366.301 703.972 364.757 705.057C363.213 706.141 361.449 706.874 359.591 707.203C357.732 707.532 355.825 707.449 354.002 706.96C352.179 706.471 350.485 705.589 349.041 704.374C337.798 694.926 329.199 682.722 324.085 668.956C323.429 667.185 323.169 665.292 323.325 663.411C323.48 661.529 324.047 659.704 324.985 658.065C325.923 656.426 327.21 655.014 328.753 653.926C330.297 652.839 332.061 652.104 333.92 651.773L366.662 645.93C369.334 645.474 372.082 645.863 374.523 647.043C376.964 648.223 378.976 650.135 380.279 652.512Z" fill="#FFCE43"/>
<path d="M404.3 612.082C402.451 612.062 400.605 612.233 398.791 612.592C396.128 613.147 393.359 612.855 390.87 611.757C388.382 610.658 386.3 608.808 384.917 606.466L368.224 577.725C367.275 576.093 366.696 574.274 366.528 572.394C366.359 570.514 366.605 568.62 367.248 566.846C367.891 565.072 368.915 563.46 370.249 562.125C371.583 560.789 373.193 559.763 374.967 559.118C388.767 554.096 403.634 552.741 418.115 555.184C419.976 555.5 421.746 556.22 423.299 557.295C424.851 558.369 426.149 559.771 427.1 561.402C428.052 563.033 428.634 564.853 428.805 566.733C428.976 568.613 428.732 570.508 428.091 572.284L416.8 603.57C415.861 606.113 414.152 608.299 411.911 609.825C409.671 611.351 407.01 612.14 404.3 612.082Z" fill="#FFCE43"/>
<path d="M403.641 666.39C405.49 666.409 407.336 666.238 409.15 665.88C411.813 665.325 414.582 665.617 417.071 666.715C419.559 667.814 421.641 669.664 423.024 672.006L439.718 700.747C440.666 702.379 441.245 704.198 441.414 706.078C441.582 707.958 441.336 709.851 440.693 711.626C440.05 713.4 439.025 715.011 437.692 716.347C436.358 717.682 434.748 718.708 432.974 719.353C419.174 724.376 404.307 725.732 389.826 723.288C387.965 722.972 386.195 722.252 384.643 721.177C383.09 720.103 381.793 718.701 380.841 717.07C379.89 715.439 379.308 713.619 379.137 711.739C378.966 709.859 379.21 707.964 379.851 706.188L391.139 674.9C392.079 672.357 393.788 670.171 396.029 668.645C398.27 667.12 400.931 666.332 403.641 666.39Z" fill="#1E1E1E"/>
<path d="M380.635 625.344C379.692 626.935 378.915 628.618 378.316 630.367C377.462 632.949 375.821 635.2 373.624 636.802C371.426 638.405 368.782 639.279 366.062 639.303L332.825 639.346C330.938 639.349 329.073 638.938 327.362 638.142C325.651 637.346 324.135 636.184 322.922 634.738C321.709 633.293 320.828 631.599 320.341 629.775C319.854 627.952 319.772 626.044 320.103 624.186C322.673 609.727 328.95 596.182 338.321 584.875C339.527 583.422 341.038 582.251 342.746 581.446C344.454 580.641 346.318 580.22 348.207 580.214C350.095 580.209 351.962 580.617 353.675 581.412C355.388 582.206 356.906 583.368 358.121 584.813L379.537 610.259C381.267 612.347 382.302 614.922 382.499 617.626C382.696 620.33 382.044 623.028 380.635 625.344Z" fill="#FFCE43"/>
<path d="M427.3 653.128C428.243 651.537 429.02 649.854 429.62 648.105C430.474 645.522 432.115 643.272 434.312 641.669C436.51 640.066 439.154 639.192 441.874 639.168L475.111 639.125C476.998 639.122 478.863 639.533 480.575 640.329C482.286 641.125 483.801 642.287 485.015 643.733C486.228 645.179 487.109 646.873 487.596 648.696C488.083 650.52 488.164 652.428 487.833 654.286C485.265 668.746 478.988 682.292 469.618 693.6C468.412 695.053 466.901 696.224 465.193 697.029C463.485 697.834 461.621 698.255 459.732 698.261C457.844 698.267 455.977 697.858 454.264 697.063C452.551 696.269 451.033 695.107 449.818 693.662L428.4 668.212C426.67 666.125 425.635 663.55 425.437 660.846C425.24 658.142 425.891 655.444 427.3 653.128Z" fill="#FFCE43"/>
<path d="M424.466 621.441C425.682 622.834 426.752 624.348 427.659 625.96C428.962 628.337 430.974 630.249 433.415 631.429C435.856 632.608 438.604 632.997 441.277 632.541L474.019 626.698C475.878 626.367 477.641 625.632 479.185 624.545C480.729 623.458 482.015 622.045 482.953 620.406C483.891 618.767 484.458 616.943 484.614 615.061C484.769 613.179 484.51 611.286 483.854 609.516C478.74 595.751 470.141 583.548 458.9 574.1C457.455 572.885 455.762 572.003 453.939 571.514C452.116 571.025 450.208 570.942 448.35 571.271C446.492 571.6 444.728 572.333 443.184 573.417C441.639 574.502 440.352 575.912 439.412 577.549L422.848 606.364C421.51 608.731 420.947 611.458 421.237 614.162C421.527 616.866 422.656 619.411 424.466 621.441Z" fill="#1E1E1E"/>
<path d="M363.205 678C368.605 678.859 373.688 681.11 377.954 684.53L385.094 672.109C386.432 669.741 386.995 667.014 386.704 664.309C386.414 661.605 385.284 659.06 383.473 657.03C382.256 655.637 381.186 654.123 380.279 652.512C378.976 650.135 376.964 648.223 374.523 647.043C372.083 645.863 369.334 645.474 366.662 645.93L345.8 649.654C347.339 671.714 352.157 676.422 363.205 678Z" fill="#1E1E1E"/>
<path d="M384.914 606.466C386.298 608.808 388.379 610.658 390.868 611.756C393.356 612.855 396.125 613.147 398.788 612.592C400.602 612.233 402.448 612.062 404.297 612.082C407.007 612.14 409.668 611.351 411.908 609.825C414.149 608.299 415.858 606.113 416.797 603.57L428.085 572.285C428.726 570.509 428.97 568.614 428.799 566.734C428.628 564.854 428.046 563.034 427.095 561.403C426.143 559.772 424.845 558.37 423.293 557.296C421.74 556.221 419.971 555.501 418.109 555.185C403.628 552.742 388.761 554.097 374.961 559.119C373.188 559.764 371.577 560.79 370.243 562.126C368.91 563.461 367.885 565.073 367.242 566.847C366.599 568.621 366.353 570.515 366.522 572.395C366.69 574.275 367.27 576.095 368.218 577.726L384.914 606.466Z" fill="#1E1E1E"/>
<path d="M423.024 672.006C421.641 669.664 419.559 667.814 417.071 666.715C414.583 665.617 411.813 665.325 409.15 665.88C407.336 666.238 405.49 666.409 403.641 666.39C400.931 666.332 398.27 667.121 396.03 668.647C393.789 670.173 392.08 672.359 391.141 674.902L385.266 691.184C386.827 692.875 388.475 694.483 390.205 696C395.205 700 414.205 702 414.205 705C414.205 707.121 417.705 717.238 419.754 722.985C424.251 722.132 428.672 720.917 432.974 719.353C434.748 718.708 436.358 717.682 437.692 716.347C439.026 715.011 440.05 713.4 440.693 711.626C441.336 709.851 441.582 707.958 441.414 706.078C441.245 704.198 440.667 702.379 439.718 700.747L423.024 672.006Z" fill="#1E1E1E"/>
<path d="M345.205 628C345.205 632.114 345.248 635.871 345.334 639.33L366.062 639.303C368.782 639.279 371.426 638.405 373.623 636.802C375.821 635.2 377.462 632.949 378.316 630.367C378.915 628.618 379.692 626.934 380.635 625.344C382.044 623.028 382.695 620.33 382.498 617.626C382.301 614.922 381.265 612.346 379.535 610.259L358.119 584.813C356.904 583.368 355.386 582.206 353.673 581.412C351.96 580.617 350.093 580.209 348.204 580.214C346.316 580.22 344.452 580.641 342.744 581.446C341.036 582.251 339.525 583.422 338.319 584.875C334.074 590.001 330.446 595.609 327.512 601.583C336.855 603.325 345.205 609.933 345.205 628Z" fill="#1E1E1E"/>
<path d="M475.114 639.125L441.876 639.168C439.156 639.192 436.512 640.066 434.315 641.669C432.117 643.272 430.476 645.523 429.623 648.105C429.023 649.854 428.246 651.537 427.303 653.128C425.894 655.444 425.243 658.142 425.44 660.846C425.637 663.55 426.673 666.125 428.403 668.212L449.819 693.659C451.034 695.105 452.552 696.266 454.265 697.06C455.978 697.855 457.845 698.264 459.733 698.258C461.622 698.252 463.486 697.831 465.194 697.026C466.902 696.221 468.413 695.05 469.619 693.597C478.99 682.29 485.267 668.745 487.837 654.286C488.168 652.428 488.087 650.52 487.6 648.696C487.113 646.873 486.231 645.178 485.018 643.733C483.805 642.287 482.289 641.125 480.578 640.329C478.866 639.533 477.001 639.122 475.114 639.125Z" fill="#1E1E1E"/>
<path d="M324.085 668.956C329.199 682.722 337.798 694.926 349.041 704.374C350.485 705.589 352.179 706.471 354.002 706.96C355.825 707.449 357.732 707.532 359.591 707.203C361.449 706.874 363.213 706.141 364.757 705.057C366.301 703.972 367.589 702.562 368.529 700.925L377.954 684.53C373.688 681.11 368.605 678.859 363.205 678C352.157 676.422 347.339 671.714 345.797 649.654L333.92 651.773C332.061 652.104 330.297 652.839 328.753 653.926C327.21 655.014 325.923 656.426 324.985 658.065C324.047 659.704 323.48 661.529 323.325 663.411C323.169 665.292 323.429 667.185 324.085 668.956Z" fill="#121212"/>
<path d="M390.205 696C388.474 694.483 386.825 692.875 385.264 691.184L379.851 706.184C379.21 707.96 378.966 709.855 379.137 711.735C379.308 713.615 379.89 715.435 380.841 717.066C381.793 718.697 383.09 720.099 384.643 721.173C386.195 722.248 387.965 722.968 389.826 723.284C399.741 724.959 409.875 724.858 419.754 722.984C417.7 717.238 395.205 700 390.205 696Z" fill="#121212"/>
<path d="M332.825 639.346L345.334 639.33C345.248 635.871 345.205 632.114 345.205 628C345.205 609.933 336.855 603.325 327.514 601.583C323.997 608.732 321.502 616.34 320.103 624.183C319.772 626.041 319.852 627.95 320.339 629.773C320.826 631.597 321.707 633.291 322.92 634.737C324.134 636.183 325.649 637.346 327.361 638.142C329.072 638.938 330.937 639.349 332.825 639.346Z" fill="#121212"/>
</g>
<defs>
<clipPath id="clip0_224_3">
<rect width="1000" height="1000" fill="white"/>
</clipPath>
</defs>
</svg>
